<svg id="图层_1" data-name="图层 1" xmlns="http://www.w3.org/2000/svg" viewBox="0 0 358 104"><defs><style>.cls-1{fill:#e7373c;}.cls-2{fill:#262626;}</style></defs><title>LOGO全</title><polyline class="cls-1" points="59.89 40.98 61.38 32.53 26.12 32.53 17.99 78.58 36.77 78.58 38.26 70.12 27.95 70.12 33.09 40.98 59.89 40.98"/><polygon class="cls-2" points="91.44 52.31 46.12 52.31 38.13 97.62 83.44 97.62 88.19 70.76 61.32 70.76 59.86 79.09 78.39 79.09 76.59 89.3 47.92 89.3 52.98 60.64 81.64 60.64 80.75 65.72 89.08 65.72 91.44 52.31"/><polygon class="cls-2" points="124 97.62 108.56 47.24 122.31 47.24 113.05 16.75 108.7 23.34 114.14 40.98 106.64 40.98 96.22 7 87.78 7 61.46 46.93 70.63 46.93 90.19 17.26 97.47 40.98 80.65 40.98 76.97 47.24 99.38 47.24 114.83 97.62 124 97.62"/><path class="cls-1" d="M158.34,46.43H146.52c-4.05,0-5.14-1.25-4.45-5.13l1.84-10.43c.68-3.88,2.2-5.12,6.26-5.12H162c4.06,0,5.14,1.24,4.45,5.12l-.33,1.88-.06.38-.4.07-4.73.73-.54.08.1-.53.59-3.31H149.53l-2.05,11.64H159l.68-3.81.09-.56.52.12,4.43,1,.35.08L165,39l-.41,2.34c-.68,3.88-2.21,5.13-6.25,5.13Z"/><path class="cls-2" d="M189.41,46.43H175.76c-4,0-5.13-1.25-4.45-5.13l1.84-10.43c.69-3.88,2.21-5.12,6.26-5.12h13.65c4,0,5.13,1.24,4.49,4.93l-.08.46-.07.38-.38.06-4.62.81-.56.09.1-.54.31-1.77H178.78l-2.06,11.64H190.2l.62-3.51H183.3l.08-.45.6-3.37.07-.45H197l-.09.45-1.2,6.82c-.68,3.88-2.21,5.13-6.26,5.13Z"/><path class="cls-2" d="M146,66.6h-4.55c-1.57,0-2-.48-1.72-2l.71-4c.26-1.5.85-2,2.41-2h4.56c1.56,0,2,.48,1.72,2l-.13.72,0,.15-.15,0-1.83.28-.2,0,0-.21.22-1.28h-4.45l-.78,4.49h4.44l.25-1.47,0-.21.2,0,1.71.37.14,0,0,.14-.15.91c-.26,1.49-.86,2-2.42,2Z"/><polygon class="cls-2" points="160.12 66.6 159.94 66.6 158.16 66.6 157.99 66.6 158.01 66.43 158.56 63.32 153.36 63.32 152.82 66.43 152.78 66.6 152.61 66.6 150.84 66.6 150.67 66.6 150.7 66.43 152.04 58.8 152.07 58.63 152.25 58.63 154.02 58.63 154.19 58.63 154.16 58.8 153.68 61.58 158.86 61.58 159.36 58.8 159.39 58.63 159.56 58.63 161.35 58.63 161.53 58.63 161.5 58.8 160.15 66.43 160.12 66.6 160.12 66.6"/><polygon class="cls-2" points="165.06 66.6 164.88 66.6 163.11 66.6 162.94 66.6 162.97 66.43 164.31 58.8 164.35 58.63 164.51 58.63 166.29 58.63 166.46 58.63 166.43 58.8 165.09 66.43 165.06 66.6 165.06 66.6"/><path class="cls-2" d="M177.18,66.6h-1.45l0,0-4.77-4.71c-.08-.09-.18-.18-.26-.28,0,.36-.08.61-.1.74l-.73,4.12,0,.17h-1.93l0-.17,1.34-7.63,0-.17h1.45l0,0,4.57,4.49a6.6,6.6,0,0,1,.46.49c.05-.37.08-.66.11-.84l.71-4,0-.17h1.94l0,.17-1.34,7.63,0,.17Z"/><path class="cls-2" d="M189.4,66.6H187l0-.09-.6-1.58h-4.62l-1.12,1.58-.06.09h-2.18l.2-.26,5.66-7.62.05-.09h1.93l0,.09,3,7.62.11.26ZM183,63.21h2.76l-.91-2.57L183,63.21Z"/><polygon class="cls-2" points="193.75 63.42 193.57 63.42 190.13 63.42 189.96 63.42 189.99 63.25 190.26 61.72 190.29 61.55 190.46 61.55 193.91 61.55 194.08 61.55 194.05 61.72 193.78 63.25 193.75 63.42 193.75 63.42"/><path class="cls-2" d="M201.94,66.6h-5.26c-1.56,0-2-.48-1.72-2l.71-4c.27-1.5.86-2,2.42-2h5.26c1.55,0,2,.48,1.73,1.9l0,.18,0,.14-.14,0-1.79.31-.2,0,0-.21.12-.69h-5.2l-.8,4.49h5.21l.24-1.35h-2.9l0-.18.23-1.3,0-.17h5l0,.17-.46,2.64c-.26,1.49-.85,2-2.42,2Z"/><polygon class="cls-2" points="214.91 66.6 214.73 66.6 206.85 66.6 206.68 66.6 206.71 66.43 208.05 58.8 208.08 58.63 208.26 58.63 216.07 58.63 216.23 58.63 216.2 58.8 215.98 60.11 215.95 60.28 215.77 60.28 209.92 60.28 209.68 61.63 213.02 61.63 213.19 61.63 213.16 61.8 212.94 63.1 212.9 63.27 212.73 63.27 209.39 63.27 209.12 64.82 215.04 64.82 215.22 64.82 215.19 64.99 214.93 66.43 214.91 66.6 214.91 66.6"/><path class="cls-2" d="M226.81,66.6h-3.1l0,0-2.53-2.84H219.7l-.47,2.71,0,.17h-2.08l0-.17,1.35-7.63,0-.17h6.71c1.28,0,1.79.52,1.59,1.65l-.31,1.79a1.89,1.89,0,0,1-2.18,1.65h-.52l2.69,2.57.32.31ZM220,62.07h3.82c.54,0,.64-.1.71-.43l.16-.92c0-.33,0-.43-.56-.43h-3.81L220,62.07Z"/><path class="cls-2" d="M238.51,66.6h-2l0-.17.83-4.72h0l-.09.1-3.54,3.82-.06.07h-.53l0-.07-2.19-3.83-.08-.14s0,0,0,.06L230,66.43l0,.17h-1.78l0-.17,1.35-7.63,0-.17h1.69l0,.06L234,63.13l4.17-4.44.07-.06h1.68l0,.17-1.35,7.63,0,.17Z"/><path class="cls-2" d="M250.59,66.6h-2.4l0-.09-.58-1.58h-4.63l-1.12,1.58-.06.09h-2.17l.18-.26,5.67-7.62.06-.09h1.92l0,.09,3,7.62.11.26Zm-6.41-3.39h2.76l-.9-2.57-1.86,2.57Z"/><path class="cls-2" d="M261.13,66.6h-1.44l0,0-4.77-4.71a2.33,2.33,0,0,1-.26-.28c0,.36-.09.61-.1.74l-.73,4.12,0,.17h-1.94l0-.17,1.33-7.63,0-.17h1.45l0,0,4.57,4.49a5.2,5.2,0,0,1,.47.49c0-.37.08-.66.11-.84l.71-4,0-.17h2l0,.17-1.34,7.63,0,.17Z"/><polygon class="cls-2" points="268.2 66.6 268.02 66.6 266.25 66.6 266.07 66.6 266.09 66.43 266.69 63.09 263.51 58.92 263.28 58.63 263.69 58.63 266.05 58.63 266.12 58.63 266.17 58.69 268.17 61.47 271.16 58.69 271.22 58.63 271.3 58.63 273.38 58.63 273.78 58.63 273.45 58.92 268.83 63.04 268.23 66.43 268.2 66.6 268.2 66.6"/><path class="cls-2" d="M227.81,46.43h-6.22l-.08-.23L220,42.09H208l-2.88,4.1-.17.24h-5.65l.5-.67L214.46,26l.16-.22h5l.1.22,7.85,19.78.27.68Zm-16.6-8.8h7.16L216,31l-4.82,6.65Z"/><polygon class="cls-2" points="237.74 46.42 237.3 46.42 232.69 46.42 232.24 46.42 232.32 45.97 235.81 26.19 235.89 25.74 236.34 25.74 240.94 25.74 241.39 25.74 241.31 26.19 237.82 45.97 237.74 46.42 237.74 46.42"/><polygon class="cls-2" points="250.48 46.42 250.03 46.42 245.43 46.42 244.98 46.42 245.06 45.97 248.55 26.19 248.63 25.74 249.08 25.74 253.68 25.74 254.13 25.74 254.05 26.19 250.56 45.97 250.48 46.42 250.48 46.42"/><path class="cls-2" d="M147.6,82.12h-2.4l0-.1-.59-1.57H140L138.83,82l-.07.1h-2.17l.19-.26,5.66-7.63.07-.09h1.91l0,.09,3,7.63.1.26Zm-6.4-3.4H144l-.9-2.56-1.85,2.56Z"/><path class="cls-2" d="M158.53,82.12h-3.09l0-.05-2.52-2.84h-1.45L151,81.94l0,.18h-2.1l0-.18,1.34-7.63,0-.17H157c1.29,0,1.8.52,1.59,1.65l-.3,1.79a1.9,1.9,0,0,1-2.18,1.65h-.53l2.69,2.57.31.32Zm-6.8-4.54h3.81c.55,0,.64-.09.7-.43l.16-.91c.06-.34,0-.44-.54-.44H152l-.31,1.78Z"/><polygon class="cls-2" points="163.85 82.11 163.67 82.11 161.9 82.11 161.73 82.11 161.75 81.94 162.83 75.85 159.5 75.85 159.33 75.85 159.36 75.67 159.6 74.31 159.63 74.14 159.8 74.14 168.59 74.14 168.77 74.14 168.74 74.31 168.5 75.67 168.47 75.85 168.3 75.85 164.96 75.85 163.88 81.94 163.85 82.11 163.85 82.11"/><polygon class="cls-2" points="170.57 82.11 170.4 82.11 168.62 82.11 168.45 82.11 168.48 81.94 169.83 74.31 169.86 74.14 170.03 74.14 171.81 74.14 171.98 74.14 171.95 74.31 170.6 81.94 170.57 82.11 170.57 82.11"/><polygon class="cls-2" points="175.51 82.11 175.33 82.11 173.56 82.11 173.39 82.11 173.42 81.94 174.76 74.31 174.8 74.14 174.97 74.14 182.68 74.14 182.86 74.14 182.83 74.31 182.59 75.64 182.57 75.82 182.39 75.82 176.61 75.82 176.33 77.48 179.36 77.48 179.53 77.48 179.5 77.66 179.26 79.05 179.23 79.22 179.06 79.22 176.02 79.22 175.54 81.94 175.51 82.11 175.51 82.11"/><polygon class="cls-2" points="184.69 82.11 184.52 82.11 182.74 82.11 182.57 82.11 182.6 81.94 183.94 74.31 183.98 74.14 184.15 74.14 185.93 74.14 186.1 74.14 186.07 74.31 184.72 81.94 184.69 82.11 184.69 82.11"/><path class="cls-2" d="M194,82.12h-4.55c-1.56,0-2-.49-1.71-2l.7-4c.27-1.5.85-2,2.42-2h4.55c1.57,0,2,.48,1.71,2l-.12.72,0,.15-.16,0-1.82.27-.21,0,0-.2.23-1.27h-4.45l-.78,4.48h4.43l.26-1.47,0-.21.2,0,1.71.36.13,0,0,.15-.16.9c-.27,1.49-.85,2-2.42,2Z"/><polygon class="cls-2" points="200.73 82.11 200.56 82.11 198.79 82.11 198.61 82.11 198.64 81.94 199.99 74.31 200.02 74.14 200.19 74.14 201.96 74.14 202.14 74.14 202.11 74.31 200.76 81.94 200.73 82.11 200.73 82.11"/><path class="cls-2" d="M213,82.12h-2.41l0-.1L210,80.45h-4.63L204.2,82l-.07.1H202l.19-.26,5.67-7.63.06-.09h1.91l0,.09,3,7.63.11.26Zm-6.41-3.4h2.76l-.91-2.56-1.85,2.56Z"/><polygon class="cls-2" points="222.05 82.11 221.88 82.11 214.38 82.11 214.21 82.11 214.23 81.94 215.58 74.31 215.62 74.14 215.78 74.14 217.56 74.14 217.73 74.14 217.7 74.31 216.64 80.33 222.18 80.33 222.36 80.33 222.33 80.51 222.08 81.94 222.05 82.11 222.05 82.11"/><polygon class="cls-2" points="230.67 82.11 230.49 82.11 228.71 82.11 228.55 82.11 228.58 81.94 229.92 74.31 229.95 74.14 230.13 74.14 231.89 74.14 232.07 74.14 232.04 74.31 230.69 81.94 230.67 82.11 230.67 82.11"/><path class="cls-2" d="M242.79,82.12h-1.45l0-.05-4.77-4.71-.26-.28c0,.37-.08.61-.1.73l-.73,4.13,0,.18h-2l0-.18,1.34-7.63,0-.17h1.44l0,0,4.58,4.5a5.26,5.26,0,0,1,.47.48c0-.39.07-.67.1-.84l.71-4,0-.17h1.94l0,.17-1.34,7.63,0,.18Z"/><polygon class="cls-2" points="249.49 82.11 249.31 82.11 247.54 82.11 247.36 82.11 247.39 81.94 248.47 75.85 245.14 75.85 244.96 75.85 244.99 75.67 245.23 74.31 245.27 74.14 245.44 74.14 254.24 74.14 254.41 74.14 254.38 74.31 254.14 75.67 254.11 75.85 253.94 75.85 250.59 75.85 249.51 81.94 249.49 82.11 249.49 82.11"/><polygon class="cls-2" points="262.32 82.11 262.14 82.11 254.26 82.11 254.09 82.11 254.12 81.94 255.46 74.31 255.5 74.14 255.67 74.14 263.47 74.14 263.65 74.14 263.62 74.31 263.39 75.61 263.35 75.79 263.18 75.79 257.32 75.79 257.09 77.14 260.43 77.14 260.6 77.14 260.57 77.31 260.35 78.61 260.31 78.79 260.14 78.79 256.8 78.79 256.53 80.33 262.46 80.33 262.63 80.33 262.6 80.51 262.35 81.94 262.32 82.11 262.32 82.11"/><polygon class="cls-2" points="272.36 82.11 272.19 82.11 264.69 82.11 264.52 82.11 264.55 81.94 265.89 74.31 265.92 74.14 266.09 74.14 267.87 74.14 268.04 74.14 268.01 74.31 266.95 80.33 272.5 80.33 272.67 80.33 272.64 80.51 272.38 81.94 272.36 82.11 272.36 82.11"/><polygon class="cls-2" points="281.71 82.11 281.54 82.11 274.05 82.11 273.87 82.11 273.9 81.94 275.25 74.31 275.27 74.14 275.45 74.14 277.23 74.14 277.4 74.14 277.37 74.31 276.3 80.33 281.86 80.33 282.03 80.33 282 80.51 281.74 81.94 281.71 82.11 281.71 82.11"/><polygon class="cls-2" points="285.35 82.11 285.18 82.11 283.41 82.11 283.23 82.11 283.26 81.94 284.61 74.31 284.63 74.14 284.81 74.14 286.58 74.14 286.75 74.14 286.72 74.31 285.38 81.94 285.35 82.11 285.35 82.11"/><path class="cls-2" d="M295.33,82.12h-5.27c-1.56,0-2-.49-1.71-2l.71-4c.26-1.5.85-2,2.42-2h5.26c1.54,0,2,.48,1.73,1.9l0,.18,0,.15-.15,0-1.78.31-.21,0,0-.21.13-.68h-5.2l-.79,4.48h5.19l.24-1.35H293l0-.17.22-1.3,0-.18h5l0,.18-.47,2.63c-.26,1.49-.85,2-2.41,2Z"/><polygon class="cls-2" points="308.29 82.11 308.11 82.11 300.24 82.11 300.06 82.11 300.09 81.94 301.44 74.31 301.48 74.14 301.64 74.14 309.45 74.14 309.63 74.14 309.59 74.31 309.37 75.61 309.33 75.79 309.16 75.79 303.3 75.79 303.06 77.14 306.41 77.14 306.58 77.14 306.54 77.31 306.32 78.61 306.29 78.79 306.12 78.79 302.77 78.79 302.5 80.33 308.43 80.33 308.61 80.33 308.57 80.51 308.32 81.94 308.29 82.11 308.29 82.11"/><path class="cls-2" d="M319.79,82.12h-1.45l0-.05-4.76-4.71-.27-.28c0,.37-.07.61-.09.73l-.74,4.13,0,.18h-1.94l0-.18,1.35-7.63,0-.17h1.45l.05,0,4.57,4.5a5.26,5.26,0,0,1,.47.48c0-.39.08-.67.11-.84l.7-4,0-.17h1.94l0,.17-1.35,7.63,0,.18Z"/><path class="cls-2" d="M329.05,82.12H324.5c-1.57,0-2-.49-1.72-2l.71-4c.26-1.5.85-2,2.41-2h4.56c1.55,0,2,.48,1.72,2l-.14.72,0,.15-.14,0-1.82.27-.21,0,0-.2.22-1.27h-4.44l-.8,4.48h4.45l.26-1.47,0-.21.2,0,1.71.36.13,0,0,.15-.17.9c-.26,1.49-.84,2-2.41,2Z"/><polygon class="cls-2" points="341.92 82.11 341.75 82.11 333.87 82.11 333.69 82.11 333.73 81.94 335.07 74.31 335.11 74.14 335.28 74.14 343.08 74.14 343.25 74.14 343.22 74.31 343 75.61 342.97 75.79 342.79 75.79 336.93 75.79 336.69 77.14 340.04 77.14 340.22 77.14 340.18 77.31 339.95 78.61 339.92 78.79 339.75 78.79 336.4 78.79 336.13 80.33 342.07 80.33 342.23 80.33 342.2 80.51 341.96 81.94 341.92 82.11 341.92 82.11"/><polygon class="cls-2" points="137.45 97.62 137.28 97.62 135.51 97.62 135.34 97.62 135.37 97.45 136.71 89.83 136.74 89.65 136.91 89.65 138.69 89.65 138.86 89.65 138.83 89.83 137.48 97.45 137.45 97.62 137.45 97.62"/><path class="cls-2" d="M149.58,97.62h-1.44l0,0-4.77-4.71-.26-.28c0,.37-.08.61-.1.74l-.73,4.12,0,.17h-2l0-.17,1.35-7.62,0-.18h1.45l0,0,4.57,4.49a5.42,5.42,0,0,1,.48.49c.05-.39.07-.66.11-.84l.7-4,0-.18h2l0,.18-1.35,7.62,0,.17Z"/><path class="cls-2" d="M158.92,97.62h-4.71c-1.57,0-2-.47-1.73-2l0-.21,0-.14.14,0,1.63-.32.21,0,0,.21-.13.72h5l.24-1.39h-4.58c-1.56,0-2-.48-1.72-2l.14-.86c.28-1.49.86-2,2.42-2h4.33c1.32,0,2,.3,1.74,1.84l0,.17,0,.14-.13,0-1.64.37-.22,0,0-.22.12-.7h-4.65l-.23,1.29h4.6c1.56,0,2,.49,1.72,2l-.18,1.05c-.26,1.5-.85,2-2.44,2Z"/><polygon class="cls-2" points="167.5 97.62 167.33 97.62 165.55 97.62 165.38 97.62 165.41 97.45 166.49 91.36 163.16 91.36 162.98 91.36 163.01 91.19 163.25 89.83 163.29 89.65 163.45 89.65 172.25 89.65 172.43 89.65 172.39 89.83 172.15 91.19 172.12 91.36 171.95 91.36 168.61 91.36 167.53 97.45 167.5 97.62 167.5 97.62"/><polygon class="cls-2" points="174.22 97.62 174.05 97.62 172.28 97.62 172.1 97.62 172.14 97.45 173.48 89.83 173.51 89.65 173.68 89.65 175.46 89.65 175.63 89.65 175.6 89.83 174.25 97.45 174.22 97.62 174.22 97.62"/><polygon class="cls-2" points="180.94 97.62 180.76 97.62 178.99 97.62 178.82 97.62 178.85 97.45 179.92 91.36 176.59 91.36 176.41 91.36 176.45 91.19 176.68 89.83 176.72 89.65 176.9 89.65 185.69 89.65 185.86 89.65 185.83 89.83 185.59 91.19 185.57 91.36 185.39 91.36 182.04 91.36 180.97 97.45 180.94 97.62 180.94 97.62"/><path class="cls-2" d="M192.44,97.62h-4.83c-1.57,0-2-.47-1.71-2l1-5.82,0-.18h2.11l0,.18-1.06,6h4.71l1.06-6,0-.18h2.12l0,.18-1,5.82c-.26,1.5-.85,2-2.4,2Z"/><polygon class="cls-2" points="201.21 97.62 201.03 97.62 199.26 97.62 199.09 97.62 199.12 97.45 200.19 91.36 196.86 91.36 196.69 91.36 196.72 91.19 196.96 89.83 196.99 89.65 197.16 89.65 205.96 89.65 206.13 89.65 206.11 89.83 205.86 91.19 205.83 91.36 205.66 91.36 202.31 91.36 201.24 97.45 201.21 97.62 201.21 97.62"/><polygon class="cls-2" points="214.04 97.62 213.86 97.62 205.99 97.62 205.81 97.62 205.85 97.45 207.19 89.83 207.22 89.65 207.4 89.65 215.19 89.65 215.38 89.65 215.34 89.83 215.11 91.13 215.08 91.3 214.91 91.3 209.05 91.3 208.81 92.65 212.15 92.65 212.33 92.65 212.3 92.83 212.07 94.13 212.04 94.3 211.87 94.3 208.52 94.3 208.25 95.84 214.18 95.84 214.35 95.84 214.32 96.02 214.07 97.45 214.04 97.62 214.04 97.62"/></svg>